<svg width="14" height="12" viewBox="0 0 14 12" fill="none" xmlns="http://www.w3.org/2000/svg">
<path d="M7 1L3 2.77778V5.44444C3 7.91111 4.70667 10.2178 7 10.7778C9.29333 10.2178 11 7.91111 11 5.44444V2.77778L7 1ZM7 2.73333C7.26371 2.73333 7.52149 2.81153 7.74076 2.95804C7.96003 3.10455 8.13092 3.31279 8.23184 3.55642C8.33276 3.80006 8.35916 4.06815 8.30771 4.32679C8.25627 4.58543 8.12928 4.82301 7.94281 5.00948C7.75634 5.19595 7.51876 5.32293 7.26012 5.37438C7.00148 5.42583 6.73339 5.39942 6.48976 5.29851C6.24612 5.19759 6.03788 5.02669 5.89137 4.80743C5.74487 4.58816 5.66667 4.33038 5.66667 4.06667C5.66667 3.71304 5.80714 3.37391 6.05719 3.12386C6.30724 2.87381 6.64638 2.73333 7 2.73333ZM7 6.24444C7.88889 6.24444 9.66667 6.72889 9.66667 7.61333C9.37477 8.05339 8.9785 8.41436 8.51321 8.66407C8.04792 8.91378 7.52806 9.04447 7 9.04447C6.47194 9.04447 5.95208 8.91378 5.48679 8.66407C5.0215 8.41436 4.62523 8.05339 4.33333 7.61333C4.33333 6.72889 6.11111 6.24444 7 6.24444Z" fill="white"/>
</svg>
