<svg width="34" height="39" viewBox="0 0 34 39" fill="none" xmlns="http://www.w3.org/2000/svg">
<path d="M17 17.5588C11.6699 17.5588 10.5898 9.46471 10.5898 9.46471C9.9558 5.25294 11.8812 0.5 16.9296 0.5C22.0014 0.5 23.9268 5.25294 23.2928 9.46471C23.2928 9.46471 22.3301 17.5588 17 17.5588ZM17 23.6059L23.3867 19.3235C28.9986 19.3235 34 24.8059 34 29.9824V35.8412C34 35.8412 25.4296 38.5 17 38.5C8.42956 38.5 0 35.8412 0 35.8412V29.9824C0 24.6882 4.55525 19.4412 10.4959 19.4412L17 23.6059Z" fill="white"/>
</svg>
