<svg width="24" height="12" viewBox="0 0 24 12" fill="none" xmlns="http://www.w3.org/2000/svg">
<path d="M2 12V10H22V12H2ZM3.15 5.95L1.85 5.2L2.7 3.7H1V2.2H2.7L1.85 0.75L3.15 0L4 1.45L4.85 0L6.15 0.75L5.3 2.2H7V3.7H5.3L6.15 5.2L4.85 5.95L4 4.45L3.15 5.95ZM11.15 5.95L9.85 5.2L10.7 3.7H9V2.2H10.7L9.85 0.75L11.15 0L12 1.45L12.85 0L14.15 0.75L13.3 2.2H15V3.7H13.3L14.15 5.2L12.85 5.95L12 4.45L11.15 5.95ZM19.15 5.95L17.85 5.2L18.7 3.7H17V2.2H18.7L17.85 0.75L19.15 0L20 1.45L20.85 0L22.15 0.75L21.3 2.2H23V3.7H21.3L22.15 5.2L20.85 5.95L20 4.45L19.15 5.95Z" fill="white"/>
</svg>
