<svg width="9" height="7" viewBox="0 0 9 7" fill="none" xmlns="http://www.w3.org/2000/svg">
<path d="M8.98213 3.19809C8.62927 2.28536 8.0167 1.49603 7.22012 0.927652C6.42354 0.359277 5.47787 0.0367729 4.5 0C3.52213 0.0367729 2.57646 0.359277 1.77988 0.927652C0.983305 1.49603 0.370731 2.28536 0.0178729 3.19809C-0.00595763 3.264 -0.00595763 3.33618 0.0178729 3.4021C0.370731 4.31483 0.983305 5.10416 1.77988 5.67253C2.57646 6.24091 3.52213 6.56341 4.5 6.60019C5.47787 6.56341 6.42354 6.24091 7.22012 5.67253C8.0167 5.10416 8.62927 4.31483 8.98213 3.4021C9.00596 3.33618 9.00596 3.264 8.98213 3.19809ZM4.5 5.25015C4.11432 5.25015 3.73729 5.13578 3.41661 4.92151C3.09592 4.70723 2.84598 4.40267 2.69838 4.04635C2.55079 3.69002 2.51217 3.29793 2.58741 2.91966C2.66266 2.54138 2.84838 2.19392 3.1211 1.9212C3.39382 1.64848 3.74129 1.46275 4.11956 1.38751C4.49784 1.31226 4.88993 1.35088 5.24625 1.49848C5.60258 1.64607 5.90714 1.89602 6.12141 2.2167C6.33569 2.53739 6.45006 2.91441 6.45006 3.30009C6.44926 3.81704 6.24356 4.31258 5.87802 4.67811C5.51249 5.04365 5.01694 5.24936 4.5 5.25015Z" fill="white"/>
<path d="M4.49989 4.50013C5.16265 4.50013 5.69993 3.96285 5.69993 3.30009C5.69993 2.63733 5.16265 2.10006 4.49989 2.10006C3.83713 2.10006 3.29986 2.63733 3.29986 3.30009C3.29986 3.96285 3.83713 4.50013 4.49989 4.50013Z" fill="white"/>
</svg>
