<svg width="15" height="15" viewBox="0 0 15 15" fill="none" xmlns="http://www.w3.org/2000/svg">
<g clip-path="url(#clip0_54847_111)">
<path fill-rule="evenodd" clip-rule="evenodd" d="M3 6V3.5C3 3.04037 3.09053 2.58525 3.26642 2.16061C3.44231 1.73597 3.70012 1.35013 4.02513 1.02513C4.35013 0.700121 4.73597 0.442313 5.16061 0.266422C5.58525 0.0905301 6.04037 0 6.5 0C6.95963 0 7.41475 0.0905301 7.83939 0.266422C8.26403 0.442313 8.64987 0.700121 8.97487 1.02513C9.29988 1.35013 9.55769 1.73597 9.73358 2.16061C9.90947 2.58525 10 3.04037 10 3.5V6H11.5C11.8978 6 12.2794 6.15804 12.5607 6.43934C12.842 6.72064 13 7.10218 13 7.5V8.05C13.5651 8.16476 14.0732 8.47136 14.4382 8.91787C14.8031 9.36438 15.0025 9.92332 15.0025 10.5C15.0025 11.0767 14.8031 11.6356 14.4382 12.0821C14.0732 12.5286 13.5651 12.8352 13 12.95V13.5C13 13.8978 12.842 14.2794 12.5607 14.5607C12.2794 14.842 11.8978 15 11.5 15H1.5C1.10218 15 0.720644 14.842 0.43934 14.5607C0.158035 14.2794 0 13.8978 0 13.5L0 7.5C0 7.10218 0.158035 6.72064 0.43934 6.43934C0.720644 6.15804 1.10218 6 1.5 6H3ZM4 3.5C4 2.83696 4.26339 2.20107 4.73223 1.73223C5.20107 1.26339 5.83696 1 6.5 1C7.16304 1 7.79893 1.26339 8.26777 1.73223C8.73661 2.20107 9 2.83696 9 3.5V6H4V3.5ZM8.5 9C8.10218 9 7.72064 9.15804 7.43934 9.43934C7.15804 9.72064 7 10.1022 7 10.5C7 10.8978 7.15804 11.2794 7.43934 11.5607C7.72064 11.842 8.10218 12 8.5 12H12.5C12.8978 12 13.2794 11.842 13.5607 11.5607C13.842 11.2794 14 10.8978 14 10.5C14 10.1022 13.842 9.72064 13.5607 9.43934C13.2794 9.15804 12.8978 9 12.5 9H8.5Z" fill="white"/>
<path d="M11.0015 11H10.0015V10H11.0015V11ZM8.00146 11H9.00146V10H8.00146V11ZM13.0015 11H12.0015V10H13.0015V11Z" fill="white"/>
</g>
<defs>
<clipPath id="clip0_54847_111">
<rect width="15.0025" height="15" fill="white"/>
</clipPath>
</defs>
</svg>
