<svg width="10" height="10" viewBox="0 0 10 10" fill="none" xmlns="http://www.w3.org/2000/svg">
<g clip-path="url(#clip0_54835_209)">
<path d="M2.27938 5.22081C2.22086 5.16222 2.18799 5.08279 2.18799 4.99998C2.18799 4.91716 2.22086 4.83774 2.27938 4.77914L3.11271 3.94581C3.17195 3.89061 3.25031 3.86056 3.33126 3.86199C3.41222 3.86342 3.48947 3.89621 3.54672 3.95347C3.60398 4.01072 3.63677 4.08797 3.6382 4.16893C3.63963 4.24988 3.60958 4.32824 3.55438 4.38748L3.25438 4.68748H6.25021C6.33309 4.68748 6.41258 4.7204 6.47118 4.77901C6.52979 4.83761 6.56271 4.9171 6.56271 4.99998C6.56271 5.08286 6.52979 5.16234 6.47118 5.22095C6.41258 5.27955 6.33309 5.31248 6.25021 5.31248H3.25438L3.55438 5.61248C3.58508 5.64109 3.60971 5.67559 3.62679 5.71392C3.64387 5.75225 3.65305 5.79363 3.65379 5.83559C3.65453 5.87755 3.64681 5.91923 3.6311 5.95814C3.61538 5.99705 3.59199 6.0324 3.56231 6.06208C3.53264 6.09175 3.49729 6.11514 3.45838 6.13086C3.41947 6.14658 3.37779 6.1543 3.33583 6.15356C3.29387 6.15282 3.25249 6.14363 3.21416 6.12655C3.17582 6.10947 3.14132 6.08485 3.11271 6.05414L2.27938 5.22081Z" fill="white"/>
<path fill-rule="evenodd" clip-rule="evenodd" d="M5.81042 0.520813H6.27292C6.84292 0.520813 7.30208 0.520813 7.66333 0.569563C8.03833 0.619563 8.35417 0.727896 8.605 0.978313C8.85583 1.22915 8.96333 1.54498 9.01417 1.91998C9.0625 2.28123 9.0625 2.74081 9.0625 3.3104V6.68956C9.0625 7.25915 9.0625 7.71873 9.01417 8.07998C8.96375 8.45498 8.85583 8.77081 8.605 9.02165C8.35417 9.27248 8.03833 9.37998 7.66333 9.43081C7.30208 9.47915 6.8425 9.47915 6.27292 9.47915H5.81042C5.24083 9.47915 4.78125 9.47915 4.42 9.43081C4.045 9.37998 3.72917 9.27248 3.47833 9.02165C3.3125 8.85498 3.20875 8.65998 3.14292 8.43748C2.74667 8.43706 2.41625 8.43248 2.14875 8.39665C1.83042 8.35373 1.55458 8.26123 1.33417 8.04081C1.11375 7.8204 1.02125 7.54498 0.978333 7.22623C0.9375 6.92206 0.9375 6.53623 0.9375 6.06373V3.93623C0.9375 3.46415 0.9375 3.07873 0.978333 2.77373C1.02125 2.45581 1.11375 2.17998 1.33417 1.95956C1.55458 1.73915 1.83 1.64665 2.14875 1.60373C2.41625 1.5679 2.74667 1.56331 3.14292 1.5629C3.20875 1.3404 3.3125 1.14498 3.47875 0.97873C3.72917 0.727896 4.04542 0.620396 4.42042 0.56998C4.78125 0.52123 5.24083 0.52123 5.81042 0.52123M3.02167 7.08498C3.02333 7.35373 3.0275 7.5954 3.0425 7.81206C2.695 7.81081 2.43667 7.80456 2.23208 7.77706C1.98292 7.74373 1.86125 7.68373 1.77625 7.59873C1.69125 7.51415 1.63125 7.39206 1.59792 7.1429C1.56333 6.88498 1.5625 6.54165 1.5625 6.04165V3.95831C1.5625 3.45831 1.56333 3.11498 1.59792 2.85706C1.63125 2.6079 1.69125 2.48623 1.77625 2.40123C1.86083 2.31623 1.98292 2.25623 2.23208 2.2229C2.43667 2.1954 2.695 2.18956 3.04292 2.1879C3.0275 2.40456 3.02333 2.64623 3.02167 2.91498C3.02122 2.99786 3.05372 3.07752 3.11202 3.13644C3.17031 3.19536 3.24962 3.2287 3.3325 3.22915C3.41538 3.22959 3.49504 3.19709 3.55396 3.1388C3.61288 3.0805 3.64622 3.00119 3.64667 2.91831C3.64917 2.4629 3.66083 2.13998 3.70583 1.89456C3.74958 1.65873 3.81917 1.52165 3.92042 1.4204C4.03583 1.30498 4.19792 1.22998 4.50375 1.18873C4.81833 1.14665 5.23542 1.14581 5.83333 1.14581H6.25C6.84833 1.14581 7.26542 1.14665 7.58 1.18873C7.88583 1.22998 8.0475 1.3054 8.16333 1.4204C8.27833 1.53581 8.35333 1.69748 8.39458 2.00373C8.43708 2.3179 8.4375 2.7354 8.4375 3.33331V6.66665C8.4375 7.26456 8.43708 7.68165 8.39458 7.99665C8.35333 8.30248 8.27833 8.46415 8.16292 8.57956C8.0475 8.69498 7.88583 8.76998 7.58 8.81123C7.26542 8.85331 6.84833 8.85415 6.25 8.85415H5.83333C5.23542 8.85415 4.81833 8.85331 4.50333 8.81123C4.19792 8.76998 4.03583 8.69456 3.92042 8.57956C3.81917 8.4779 3.74958 8.34123 3.70583 8.1054C3.66083 7.85998 3.64917 7.53706 3.64667 7.08165C3.64645 7.04061 3.63815 7.00001 3.62224 6.96218C3.60633 6.92435 3.58313 6.89003 3.55396 6.86116C3.52479 6.8323 3.49021 6.80946 3.45222 6.79396C3.41422 6.77846 3.37354 6.77059 3.3325 6.77081C3.29146 6.77103 3.25087 6.77933 3.21304 6.79524C3.17521 6.81114 3.14088 6.83435 3.11202 6.86352C3.08315 6.89269 3.06032 6.92727 3.04482 6.96526C3.02931 7.00326 3.02145 7.04394 3.02167 7.08498Z" fill="white"/>
</g>
<defs>
<clipPath id="clip0_54835_209">
<rect width="10" height="10" fill="white"/>
</clipPath>
</defs>
</svg>
