<svg width="10" height="10" viewBox="0 0 10 10" fill="none" xmlns="http://www.w3.org/2000/svg">
<path d="M2.41176 2.88239H1.94117C1.69156 2.88239 1.45217 2.98154 1.27566 3.15805C1.09916 3.33455 1 3.57394 1 3.82356V8.05882C1 8.30844 1.09916 8.54783 1.27566 8.72433C1.45217 8.90083 1.69156 8.99999 1.94117 8.99999H6.17644C6.42605 8.99999 6.66544 8.90083 6.84195 8.72433C7.01845 8.54783 7.11761 8.30844 7.11761 8.05882V7.58824" stroke="white" stroke-width="0.833333" stroke-linecap="round" stroke-linejoin="round"/>
<path d="M6.64712 1.94122L8.05888 3.35298M8.71064 2.6871C8.89598 2.50176 9.0001 2.25039 9.0001 1.98828C9.0001 1.72617 8.89598 1.4748 8.71064 1.28946C8.5253 1.10412 8.27393 1 8.01182 1C7.74971 1 7.49834 1.10412 7.313 1.28946L3.35303 5.23532V6.64707H4.76478L8.71064 2.6871Z" stroke="white" stroke-width="0.833333" stroke-linecap="round" stroke-linejoin="round"/>
</svg>
