<svg width="15" height="16" viewBox="0 0 15 16" fill="none" xmlns="http://www.w3.org/2000/svg">
<path fill-rule="evenodd" clip-rule="evenodd" d="M3.00488 6.5V4C3.00488 3.54037 3.09541 3.08525 3.2713 2.66061C3.4472 2.23597 3.705 1.85013 4.03001 1.52513C4.35501 1.20012 4.74085 0.942313 5.16549 0.766422C5.59013 0.59053 6.04526 0.5 6.50488 0.5C6.96451 0.5 7.41964 0.59053 7.84427 0.766422C8.26891 0.942313 8.65475 1.20012 8.97976 1.52513C9.30476 1.85013 9.56257 2.23597 9.73846 2.66061C9.91435 3.08525 10.0049 3.54037 10.0049 4V6.5H11.5049C11.9027 6.5 12.2842 6.65804 12.5655 6.93934C12.8468 7.22064 13.0049 7.60218 13.0049 8V8.55C13.57 8.66476 14.0781 8.97136 14.4431 9.41787C14.808 9.86438 15.0074 10.4233 15.0074 11C15.0074 11.5767 14.808 12.1356 14.4431 12.5821C14.0781 13.0286 13.57 13.3352 13.0049 13.45V14C13.0049 14.3978 12.8468 14.7794 12.5655 15.0607C12.2842 15.342 11.9027 15.5 11.5049 15.5H1.50488C1.10706 15.5 0.725527 15.342 0.444223 15.0607C0.162918 14.7794 0.00488281 14.3978 0.00488281 14L0.00488281 8C0.00488281 7.60218 0.162918 7.22064 0.444223 6.93934C0.725527 6.65804 1.10706 6.5 1.50488 6.5H3.00488ZM4.00488 4C4.00488 3.33696 4.26827 2.70107 4.73712 2.23223C5.20596 1.76339 5.84184 1.5 6.50488 1.5C7.16792 1.5 7.80381 1.76339 8.27265 2.23223C8.74149 2.70107 9.00488 3.33696 9.00488 4V6.5H4.00488V4ZM8.50488 9.5C8.10706 9.5 7.72553 9.65804 7.44422 9.93934C7.16292 10.2206 7.00488 10.6022 7.00488 11C7.00488 11.3978 7.16292 11.7794 7.44422 12.0607C7.72553 12.342 8.10706 12.5 8.50488 12.5H12.5049C12.9027 12.5 13.2842 12.342 13.5655 12.0607C13.8468 11.7794 14.0049 11.3978 14.0049 11C14.0049 10.6022 13.8468 10.2206 13.5655 9.93934C13.2842 9.65804 12.9027 9.5 12.5049 9.5H8.50488Z" fill="white"/>
</svg>
