<svg width="9" height="9" viewBox="0 0 9 9" fill="none" xmlns="http://www.w3.org/2000/svg">
<path d="M1.84912 4.49971C1.84912 4.39428 1.89107 4.29317 1.96574 4.21863C2.04042 4.14408 2.14169 4.1022 2.24729 4.1022H4.10172V2.25085C4.10172 2.14542 4.14367 2.04431 4.21834 1.96976C4.29302 1.89521 4.39429 1.85333 4.49989 1.85333C4.6055 1.85333 4.70677 1.89521 4.78144 1.96976C4.85612 2.04431 4.89807 2.14542 4.89807 2.25085V4.1022H6.75249C6.8581 4.1022 6.95937 4.14408 7.03404 4.21863C7.10872 4.29317 7.15067 4.39428 7.15067 4.49971C7.15067 4.60514 7.10872 4.70625 7.03404 4.78079C6.95937 4.85534 6.8581 4.89722 6.75249 4.89722H4.89807V6.74857C4.89807 6.854 4.85612 6.95511 4.78144 7.02966C4.70677 7.10421 4.6055 7.14609 4.49989 7.14609C4.39429 7.14609 4.29302 7.10421 4.21834 7.02966C4.14367 6.95511 4.10172 6.854 4.10172 6.74857V4.89722H2.24729C2.14169 4.89722 2.04042 4.85534 1.96574 4.78079C1.89107 4.70625 1.84912 4.60514 1.84912 4.49971Z" fill="white"/>
<path fill-rule="evenodd" clip-rule="evenodd" d="M2.01365 0.137159C3.66605 -0.0457195 5.33364 -0.0457195 6.98604 0.137159C7.95599 0.245282 8.73906 1.00798 8.85268 1.98162C9.04911 3.65488 9.04911 5.34511 8.85268 7.01837C8.73853 7.99202 7.95546 8.75418 6.98604 8.86283C5.33364 9.04572 3.66605 9.04572 2.01365 8.86283C1.0437 8.75418 0.260627 7.99202 0.147014 7.01837C-0.0490048 5.34516 -0.0490048 3.65483 0.147014 1.98162C0.260627 1.00798 1.04423 0.245282 2.01365 0.137159ZM6.89791 0.926884C5.30408 0.750513 3.69561 0.750513 2.10178 0.926884C1.80673 0.959563 1.53133 1.09059 1.32007 1.29881C1.10882 1.50702 0.974042 1.78026 0.937521 2.07437C0.748706 3.68614 0.748706 5.31438 0.937521 6.92615C0.974154 7.22017 1.10898 7.49329 1.32022 7.70139C1.53147 7.9095 1.80681 8.04045 2.10178 8.07311C3.68226 8.24907 5.31743 8.24907 6.89791 8.07311C7.19279 8.04034 7.468 7.90934 7.67914 7.70124C7.89028 7.49314 8.02503 7.22009 8.06164 6.92615C8.25046 5.31438 8.25046 3.68614 8.06164 2.07437C8.02492 1.78053 7.89012 1.5076 7.67899 1.2996C7.46786 1.09161 7.19271 0.960687 6.89791 0.927945" fill="white"/>
</svg>
